<?xml version="1.0" encoding="UTF-8" standalone="no"?>
<!-- Created with Inkscape (http://www.inkscape.org/) -->

<svg
   xmlns:dc="http://purl.org/dc/elements/1.1/"
   xmlns:cc="http://creativecommons.org/ns#"
   xmlns:rdf="http://www.w3.org/1999/02/22-rdf-syntax-ns#"
   xmlns:svg="http://www.w3.org/2000/svg"
   xmlns="http://www.w3.org/2000/svg"
   xmlns:sodipodi="http://sodipodi.sourceforge.net/DTD/sodipodi-0.dtd"
   xmlns:inkscape="http://www.inkscape.org/namespaces/inkscape"
   width="8.5in"
   height="11in"
   viewBox="0 0 765 990"
   id="svg2"
   version="1.1"
   inkscape:version="0.91 r13725"
   sodipodi:docname="base-1.svg">
  <sodipodi:namedview
     id="base"
     pagecolor="#ffffff"
     bordercolor="#666666"
     borderopacity="1.0"
     inkscape:pageopacity="0.0"
     inkscape:pageshadow="2"
     inkscape:zoom="0.35"
     inkscape:cx="375"
     inkscape:cy="720.65501"
     inkscape:document-units="px"
     inkscape:current-layer="layer1"
     showgrid="false"
     inkscape:window-width="1101"
     inkscape:window-height="602"
     inkscape:window-x="0"
     inkscape:window-y="1"
     inkscape:window-maximized="0"
     units="in" />
  <defs
     id="defs4" />
  <metadata
     id="metadata7">
    <rdf:RDF>
      <cc:Work
         rdf:about="">
        <dc:format>image/svg+xml</dc:format>
        <dc:type
           rdf:resource="http://purl.org/dc/dcmitype/StillImage" />
        <dc:title></dc:title>
      </cc:Work>
    </rdf:RDF>
  </metadata>
  <g
     inkscape:label="Layer 1"
     inkscape:groupmode="layer"
     id="layer1"
     transform="translate(0,-62.3622)">
    <g
       id="boxX"
       transform="matrix(0,1,-1,0,448.98762,-288.4027)">
      <path
         style="fill:none;stroke:#000000"
         id="boxX-sideglueflap"
         d="m 0,0 -46.062992,9.7875385 0,86.7241355 L 0,106.29921 M 0,0 Z"
         inkscape:connector-curvature="0" />
      <path
         style="fill:none;stroke:#000000"
         id="boxX-body"
         d="M 0,0 0,106.29921 M 230.31496,0 l 0,106.29921 M 549.2126,0 l 0,106.29921 M 779.52756,0 l 0,106.29921 M 1094.8819,0 l 0,106.29921 M 0,0 Z"
         inkscape:connector-curvature="0" />
      <path
         style="fill:none;stroke:#000000"
         id="boxX-bothead"
         d="m 0,106.29921 0,318.89764 6,0 0,-7.08661 m 0,3.5433 218.31496,0 m 0,-3.5433 0,7.08661 6,0 0,-318.89764 M 0,106.29921 m 0,318.89764 m 3.5433071,0 19.6651959,46.06299 183.897957,0 19.66519,-46.06299 M 0,109.84252 l 230.31496,0 z"
         inkscape:connector-curvature="0" />
      <path
         style="fill:none;stroke:#000000"
         id="boxX-botcut"
         d="m 549.2126,106.29921 230.31496,0 M 0,0 Z"
         inkscape:connector-curvature="0" />
      <path
         style="fill:none;stroke:#000000"
         id="boxX-tophead"
         d="m 0,0 0,-318.89764 6,0 0,7.08662 m 0,-3.54331 218.31496,0 m 0,3.54331 0,-7.08662 6,0 0,318.89764 M 0,0 m 0,-318.89764 m 3.5433071,0 19.6651959,-46.06299 183.897957,0 19.66519,46.06299 M 0,-3.5433071 l 230.31496,0 z"
         inkscape:connector-curvature="0" />
      <path
         style="fill:none;stroke:#000000"
         id="boxX-topcut"
         d="M 549.2126,0 779.52756,0 M 0,0 Z"
         inkscape:connector-curvature="0" />
      <path
         style="fill:none;stroke:#000000"
         id="boxX-topglueflap"
         d="m 230.31496,0 0,0 7.08661,-7.0866142 21.75318,-175.3936958 M 549.2126,0 l -3.54331,0 0,-10.629921 -10.62992,-10.629922 -34.64505,-161.220467 -241.23957,0 M 230.31496,0 545.66929,0 m 549.21261,0 0,0 -7.0866,-7.0866142 -21.7532,-175.3936958 M 779.52756,0 l 3.54331,0 0,-10.629921 10.62992,-10.629922 34.64504,-161.220467 237.69627,0 M 783.07087,0 1094.8819,0 Z"
         inkscape:connector-curvature="0" />
      <path
         style="fill:none;stroke:#000000"
         id="boxX-botglueflap"
         d="m 230.31496,106.29921 0,0 7.08661,7.08662 21.75318,175.3937 m 290.05785,-182.48032 -3.54331,0 0,10.62992 -10.62992,10.62993 -34.64505,161.22047 -241.23957,0 m -28.83979,-182.48032 315.35433,0 m 549.21261,0 0,0 -7.0866,7.08662 -21.7532,175.3937 m -286.51454,-182.48032 3.54331,0 0,10.62992 10.62992,10.62993 34.64504,161.22047 237.69627,0 m -282.97123,-182.48032 311.81103,0 z"
         inkscape:connector-curvature="0" />
    </g>
  </g>
</svg>
