<?xml version="1.0" encoding="UTF-8" standalone="no"?>
<!-- Created with Inkscape (http://www.inkscape.org/) -->

<svg
   xmlns:dc="http://purl.org/dc/elements/1.1/"
   xmlns:cc="http://creativecommons.org/ns#"
   xmlns:rdf="http://www.w3.org/1999/02/22-rdf-syntax-ns#"
   xmlns:svg="http://www.w3.org/2000/svg"
   xmlns="http://www.w3.org/2000/svg"
   xmlns:sodipodi="http://sodipodi.sourceforge.net/DTD/sodipodi-0.dtd"
   xmlns:inkscape="http://www.inkscape.org/namespaces/inkscape"
   width="210mm"
   height="297mm"
   viewBox="0 0 744.09448819 1052.3622047"
   id="svg4349"
   version="1.1"
   inkscape:version="0.91 r13725"
   sodipodi:docname="head-1.svg">
  <sodipodi:namedview
     id="base"
     pagecolor="#ffffff"
     bordercolor="#666666"
     borderopacity="1.0"
     inkscape:pageopacity="0.0"
     inkscape:pageshadow="2"
     inkscape:zoom="0.35"
     inkscape:cx="17.857143"
     inkscape:cy="520"
     inkscape:document-units="px"
     inkscape:current-layer="layer1"
     showgrid="false"
     inkscape:window-width="1280"
     inkscape:window-height="728"
     inkscape:window-x="6"
     inkscape:window-y="17"
     inkscape:window-maximized="0" />
  <defs
     id="defs4351" />
  <metadata
     id="metadata4354">
    <rdf:RDF>
      <cc:Work
         rdf:about="">
        <dc:format>image/svg+xml</dc:format>
        <dc:type
           rdf:resource="http://purl.org/dc/dcmitype/StillImage" />
        <dc:title />
      </cc:Work>
    </rdf:RDF>
  </metadata>
  <g
     id="layer1"
     inkscape:groupmode="layer"
     inkscape:label="Layer 1">
    <g
       id="box"
       transform="matrix(0,1,-1,0,446.59165,129.42634)">
      <path
         style="fill:none;stroke:#000000"
         id="box-sideglueflap"
         d="m 0,0 -46.062992,9.7875385 0,122.1572015 L 0,141.73228 M 0,0 Z"
         inkscape:connector-curvature="0" />
      <path
         style="fill:none;stroke:#000000"
         id="box-body"
         d="M 0,0 0,141.73228 M 354.33071,0 l 0,141.73228 M 563.38583,0 l 0,141.73228 M 917.71654,0 l 0,141.73228 M 1123.2283,0 l 0,141.73228 M 0,0 Z"
         inkscape:connector-curvature="0" />
      <path
         style="fill:none;stroke:#000000"
         id="box-bothead"
         d="m 0,141.73228 0,209.05512 6,0 0,-7.08661 m 0,3.5433 342.33071,0 m 0,-3.5433 0,7.08661 6,0 0,-209.05512 M 0,141.73228 M 0,350.7874 m 3.5433071,0 19.6651959,46.06299 307.913707,0 19.66519,-46.06299 M 0,145.27559 l 354.33071,0 z"
         inkscape:connector-curvature="0" />
      <path
         style="fill:none;stroke:#000000"
         id="box-botcut"
         d="m 563.38583,141.73228 354.33071,0 M 0,0 Z"
         inkscape:connector-curvature="0" />
      <path
         style="fill:none;stroke:#000000"
         id="box-tophead"
         d="m 0,0 0,-209.05512 6,0 0,7.08662 m 0,-3.54331 342.33071,0 m 0,3.54331 0,-7.08662 6,0 0,209.05512 M 0,0 m 0,-209.05512 m 3.5433071,0 19.6651959,-46.06299 307.913707,0 19.66519,46.06299 M 0,-3.5433071 l 354.33071,0 z"
         inkscape:connector-curvature="0" />
      <path
         style="fill:none;stroke:#000000"
         id="box-topcut"
         d="M 563.38583,0 917.71654,0 M 0,0 Z"
         inkscape:connector-curvature="0" />
      <path
         style="fill:none;stroke:#000000"
         id="box-topglueflap"
         d="m 354.33071,0 0,0 7.08661,-7.0866142 15.00969,-120.4724458 M 563.38583,0 l -3.54331,0 0,-10.629921 -10.62992,-10.629922 -22.97117,-106.299217 -149.81442,0 M 354.33071,0 559.84252,0 m 563.38578,0 0,0 -7.0866,-7.0866142 L 1101.132,-127.55906 M 917.71654,0 l 3.5433,0 0,-10.629921 10.62992,-10.629922 22.97118,-106.299217 146.27106,0 M 921.25984,0 1123.2283,0 Z"
         inkscape:connector-curvature="0" />
      <path
         style="fill:none;stroke:#000000"
         id="box-botglueflap"
         d="m 354.33071,141.73228 0,0 7.08661,7.08662 15.00969,120.47244 m 186.95882,-127.55906 -3.54331,0 0,10.62992 -10.62992,10.62993 -22.97117,106.29921 -149.81442,0 m -22.0963,-127.55906 205.51181,0 m 563.38578,0 0,0 -7.0866,7.08662 -15.0097,120.47244 m -183.41546,-127.55906 3.5433,0 0,10.62992 10.62992,10.62993 22.97118,106.29921 146.27106,0 m -179.87216,-127.55906 201.96846,0 z"
         inkscape:connector-curvature="0" />
    </g>
    <circle
       style="fill:#dedded;fill-opacity:1"
       id="path4495"
       cx="195.43307"
       cy="215.79449"
       r="35.433071" />
    <circle
       r="35.433071"
       cy="393.20789"
       cx="195.43307"
       id="circle4497"
       style="fill:#dedded;fill-opacity:1" />
    <circle
       cy="872.36218"
       cx="375.72552"
       id="circle4499"
       style="fill:#dedded;fill-opacity:1"
       r="97.440948" />
  </g>
</svg>
