<svg xmlns="http://www.w3.org/2000/svg" version="1.1" width="396.7mm" height="153.7mm" viewBox = " 0 0 1405.631077 544.6067469999999" >
<!-- Front--> 
<g transform="translate(22.5000185, 22.5000185) " > 
 <circle cx="365.4282474706257" cy="70.45289783359588" r="26.574825" style="stroke:#000000;stroke-width:0.90000074;fill:none" /> 
 <circle cx="141.73239999999998" cy="70.86619999999999" r="26.574825" style="stroke:#000000;stroke-width:0.90000074;fill:none" /> 
<polygon style="stroke:#000000; fill:none; stroke-width:0.90000074" points="0, 0 0, 159.44895 510.23663999999997, 159.44895 510.23663999999997, 0" /> 
</g>
<!-- Back--> 
<g transform="translate(532.7366585, 22.5000185) " > 
<polyline style="stroke:#000000; fill:none; stroke-width:0.90000074" points="0, 0 510.23663999999997, 0 510.23663999999997, 159.44895 0, 159.44895" /> 
</g>
<!-- Left--> 
<g transform="translate(1041.2016435, 24.2716735) " > 
<polyline style="stroke:#000000; fill:none; stroke-width:0.90000074" points="1.771655, 1.771655 338.386105, 1.771655 338.386105, 157.677295 1.771655, 157.677295" /> 
</g>
<!-- Right--> 
<g transform="translate(1041.2016435, 180.1773135) " > 
<polyline style="stroke:#000000; fill:none; stroke-width:0.90000074" points="338.386105, 1.771655 338.386105, 157.677295 1.771655, 157.677295" /> 
</g>
<!-- Top--> 
<g transform="translate(22.5000185, 180.1773135) " > 
<polyline style="stroke:#000000; fill:none; stroke-width:0.90000074" points="0, 1.771655 0, 338.386105 510.23663999999997, 338.386105 510.23663999999997, 1.771655" /> 
</g>
<!-- Bottom--> 
<g transform="translate(532.7366585, 180.1773135) " > 
<polyline style="stroke:#000000; fill:none; stroke-width:0.90000074" points="0, 338.386105 510.23663999999997, 338.386105 510.23663999999997, 1.771655" /> 
 <circle cx="255.11831999999998" cy="141.73239999999998" r="106.2993" style="stroke:#000000;stroke-width:0.90000074;fill:none" /> 
 <circle cx="255.11831999999998" cy="194.88205" r="106.2993" style="stroke:#000000;stroke-width:0.90000074;fill:none" /> 
 <rect x="148.81902" y="138.18909" width="212.5986" height="70.86619999999999" rx="0.8858275" ry="0.8858275" style="stroke:#000000;stroke-width:0.90000074;fill:none" /> 
</g></svg>